<?xml version="1.0" standalone="no"?>
<svg viewBox="0 0 200 200" xmlns="http://www.w3.org/2000/svg">
  <path fill="#E7ECF0" d="M34.5,-54.7C47,-52.5,61.1,-48,71.9,-38.4C82.7,-28.9,90.2,-14.5,87,-1.8C83.8,10.8,69.9,21.5,59.8,32.3C49.7,43.1,43.5,53.8,34.2,57.4C24.9,60.9,12.4,57.2,-0.4,57.8C-13.2,58.4,-26.3,63.4,-37.8,61.1C-49.3,58.9,-59.1,49.3,-62,37.9C-64.8,26.5,-60.7,13.3,-62.1,-0.9C-63.6,-15,-70.7,-30,-65.7,-37.5C-60.6,-45.1,-43.4,-45.2,-30.4,-47.2C-17.5,-49.2,-8.7,-53,1.1,-54.9C11,-56.9,22,-57,34.5,-54.7Z" transform="translate(100 100)" />
</svg>
