<svg xmlns="http://www.w3.org/2000/svg" version="1.1" xmlns:xlink="http://www.w3.org/1999/xlink" xmlns:svgjs="http://svgjs.dev/svgjs" width="1440" height="566" preserveAspectRatio="none" viewBox="0 0 1440 566"><g mask="url(&quot;#SvgjsMask1019&quot;)" fill="none"><rect width="1440" height="566" x="0" y="0" fill="rgba(235, 240, 240, 1)"></rect><path d="M1702.01 35.59C1596.04 44.01 1523.84 257.03 1338.56 256.33 1153.27 255.63 1100.48-79.41 975.1-109.07" stroke="rgba(44, 74, 191, 1)" stroke-width="2"></path><path d="M1609.9 359.76C1432.6 357.93 1288.07 173.78 927.28 167.32 566.49 160.86 428.67-103.54 244.66-108.7" stroke="rgba(44, 74, 191, 1)" stroke-width="2"></path><path d="M1656.68 369.07C1528.36 357.58 1463.06 102.39 1222.32 91.73 981.58 81.07 902.06-46.83 787.96-48.56" stroke="rgba(44, 74, 191, 1)" stroke-width="2"></path><path d="M1578.8 208.56C1476.96 210.81 1400.51 354.62 1196.71 350.06 992.91 345.5 952.14-36.51 814.62-75.9" stroke="rgba(44, 74, 191, 1)" stroke-width="2"></path><path d="M1556.14 243.63C1452.93 243.37 1352.77 172.88 1149.41 172.88 946.04 172.88 958.05 247.68 742.68 243.63 527.31 239.58 468.79-87.5 335.95-111.24" stroke="rgba(44, 74, 191, 1)" stroke-width="2"></path></g><defs><mask id="SvgjsMask1019"><rect width="1440" height="566" fill="#ffffff"></rect></mask></defs></svg>